<?xml version="1.0" encoding="utf-8" standalone="no"?>
<!DOCTYPE svg PUBLIC "-//W3C//DTD SVG 1.1//EN"
  "http://www.w3.org/Graphics/SVG/1.1/DTD/svg11.dtd">
<svg xmlns:xlink="http://www.w3.org/1999/xlink" width="864pt" height="252pt" viewBox="0 0 864 252" xmlns="http://www.w3.org/2000/svg" version="1.1">
 <metadata>
  <rdf:RDF xmlns:dc="http://purl.org/dc/elements/1.1/" xmlns:cc="http://creativecommons.org/ns#" xmlns:rdf="http://www.w3.org/1999/02/22-rdf-syntax-ns#">
   <cc:Work>
    <dc:type rdf:resource="http://purl.org/dc/dcmitype/StillImage"/>
    <dc:format>image/svg+xml</dc:format>
    <dc:creator>
     <cc:Agent>
      <dc:title>Minecraft-Generation</dc:title>
     </cc:Agent>
    </dc:creator>
   </cc:Work>
  </rdf:RDF>
 </metadata>
 <defs>
  <style type="text/css">*{stroke-linejoin: round; stroke-linecap: butt}</style>
 </defs>
 <g id="figure_1">
  <g id="patch_1">
   <path d="M 0 252
L 864 252
L 864 0
L 0 0
z
" style="fill: #090b12"/>
  </g>
  <g id="axes_1">
   <g id="patch_2">
    <path d="M 147.783925 126
Q 163.816177 126 177.891869 126
" clip-path="url(#p1c907d99c4)" style="fill: none; stroke: #8c9ab1; stroke-width: 1.75; stroke-linecap: round"/>
    <path d="M 171.691869 122.9
L 177.891869 126
L 171.691869 129.1
z
" clip-path="url(#p1c907d99c4)" style="fill: #8c9ab1; stroke: #8c9ab1; stroke-width: 1.75; stroke-linecap: round"/>
   </g>
   <g id="patch_3">
    <path d="M 305.392981 109.257781
Q 335.123609 100.641689 362.975002 92.570208
" clip-path="url(#p1c907d99c4)" style="fill: none; stroke: #8c9ab1; stroke-width: 1.75; stroke-linecap: round"/>
    <path d="M 356.15714 91.318505
L 362.975002 92.570208
L 357.882922 97.273476
z
" clip-path="url(#p1c907d99c4)" style="fill: #8c9ab1; stroke: #8c9ab1; stroke-width: 1.75; stroke-linecap: round"/>
   </g>
   <g id="patch_4">
    <path d="M 305.391618 142.741824
Q 335.617624 151.50148 363.964395 159.716523
" clip-path="url(#p1c907d99c4)" style="fill: none; stroke: #8c9ab1; stroke-width: 1.75; stroke-linecap: round"/>
    <path d="M 358.872315 155.013256
L 363.964395 159.716523
L 357.146533 160.968227
z
" clip-path="url(#p1c907d99c4)" style="fill: #8c9ab1; stroke: #8c9ab1; stroke-width: 1.75; stroke-linecap: round"/>
   </g>
   <g id="patch_5">
    <path d="M 503.971295 74.9952
Q 511.621753 74.9952 517.315652 74.9952
" clip-path="url(#p1c907d99c4)" style="fill: none; stroke: #8c9ab1; stroke-width: 1.75; stroke-linecap: round"/>
    <path d="M 511.115652 71.8952
L 517.315652 74.9952
L 511.115652 78.0952
z
" clip-path="url(#p1c907d99c4)" style="fill: #8c9ab1; stroke: #8c9ab1; stroke-width: 1.75; stroke-linecap: round"/>
   </g>
   <g id="patch_6">
    <path d="M 491.398701 177.0048
Q 505.331512 177.0048 517.307763 177.0048
" clip-path="url(#p1c907d99c4)" style="fill: none; stroke: #8c9ab1; stroke-width: 1.75; stroke-linecap: round"/>
    <path d="M 511.107763 173.9048
L 517.307763 177.0048
L 511.107763 180.1048
z
" clip-path="url(#p1c907d99c4)" style="fill: #8c9ab1; stroke: #8c9ab1; stroke-width: 1.75; stroke-linecap: round"/>
   </g>
   <g id="patch_7">
    <path d="M 658.380218 92.02538
Q 688.110888 100.641485 715.962322 108.712977
" clip-path="url(#p1c907d99c4)" style="fill: none; stroke: #8c9ab1; stroke-width: 1.75; stroke-linecap: round"/>
    <path d="M 710.870242 104.00971
L 715.962322 108.712977
L 709.14446 109.964681
z
" clip-path="url(#p1c907d99c4)" style="fill: #8c9ab1; stroke: #8c9ab1; stroke-width: 1.75; stroke-linecap: round"/>
   </g>
   <g id="patch_8">
    <path d="M 658.380218 159.97462
Q 688.110888 151.358515 715.962322 143.287023
" clip-path="url(#p1c907d99c4)" style="fill: none; stroke: #8c9ab1; stroke-width: 1.75; stroke-linecap: round"/>
    <path d="M 709.14446 142.035319
L 715.962322 143.287023
L 710.870242 147.99029
z
" clip-path="url(#p1c907d99c4)" style="fill: #8c9ab1; stroke: #8c9ab1; stroke-width: 1.75; stroke-linecap: round"/>
   </g>
   <g id="patch_9">
    <path d="M 30.14064 141.6492
L 129.87216 141.6492
Q 144.9576 141.6492 144.9576 137.47608
L 144.9576 114.52392
Q 144.9576 110.3508 129.87216 110.3508
L 30.14064 110.3508
Q 15.0552 110.3508 15.0552 114.52392
L 15.0552 137.47608
Q 15.0552 141.6492 30.14064 141.6492
z
" clip-path="url(#p1c907d99c4)" style="fill: #171e2c; stroke: #43d9c2; stroke-width: 1.65; stroke-linejoin: miter"/>
   </g>
   <g id="patch_10">
    <path d="M 197.75664 141.6492
L 297.48816 141.6492
Q 312.5736 141.6492 312.5736 137.47608
L 312.5736 114.52392
Q 312.5736 110.3508 297.48816 110.3508
L 197.75664 110.3508
Q 182.6712 110.3508 182.6712 114.52392
L 182.6712 137.47608
Q 182.6712 141.6492 197.75664 141.6492
z
" clip-path="url(#p1c907d99c4)" style="fill: #171e2c; stroke: #a78bfa; stroke-width: 1.65; stroke-linejoin: miter"/>
   </g>
   <g id="patch_11">
    <path d="M 361.18224 90.6444
L 486.05616 90.6444
Q 501.1416 90.6444 501.1416 86.47128
L 501.1416 63.51912
Q 501.1416 59.346 486.05616 59.346
L 361.18224 59.346
Q 346.0968 59.346 346.0968 63.51912
L 346.0968 86.47128
Q 346.0968 90.6444 361.18224 90.6444
z
" clip-path="url(#p1c907d99c4)" style="fill: #171e2c; stroke: #fb7185; stroke-width: 1.65; stroke-linejoin: miter"/>
   </g>
   <g id="patch_12">
    <path d="M 373.75344 192.654
L 473.48496 192.654
Q 488.5704 192.654 488.5704 188.48088
L 488.5704 165.52872
Q 488.5704 161.3556 473.48496 161.3556
L 373.75344 161.3556
Q 358.668 161.3556 358.668 165.52872
L 358.668 188.48088
Q 358.668 192.654 373.75344 192.654
z
" clip-path="url(#p1c907d99c4)" style="fill: #171e2c; stroke: #f6c85f; stroke-width: 1.65; stroke-linejoin: miter"/>
   </g>
   <g id="patch_13">
    <path d="M 537.17904 90.6444
L 662.05296 90.6444
Q 677.1384 90.6444 677.1384 86.47128
L 677.1384 63.51912
Q 677.1384 59.346 662.05296 59.346
L 537.17904 59.346
Q 522.0936 59.346 522.0936 63.51912
L 522.0936 86.47128
Q 522.0936 90.6444 537.17904 90.6444
z
" clip-path="url(#p1c907d99c4)" style="fill: #171e2c; stroke: #43d9c2; stroke-width: 1.65; stroke-linejoin: miter"/>
   </g>
   <g id="patch_14">
    <path d="M 537.17904 192.654
L 662.05296 192.654
Q 677.1384 192.654 677.1384 188.48088
L 677.1384 165.52872
Q 677.1384 161.3556 662.05296 161.3556
L 537.17904 161.3556
Q 522.0936 161.3556 522.0936 165.52872
L 522.0936 188.48088
Q 522.0936 192.654 537.17904 192.654
z
" clip-path="url(#p1c907d99c4)" style="fill: #171e2c; stroke: #a78bfa; stroke-width: 1.65; stroke-linejoin: miter"/>
   </g>
   <g id="patch_15">
    <path d="M 725.74704 141.6492
L 825.47856 141.6492
Q 840.564 141.6492 840.564 137.47608
L 840.564 114.52392
Q 840.564 110.3508 825.47856 110.3508
L 725.74704 110.3508
Q 710.6616 110.3508 710.6616 114.52392
L 710.6616 137.47608
Q 710.6616 141.6492 725.74704 141.6492
z
" clip-path="url(#p1c907d99c4)" style="fill: #171e2c; stroke: #fb7185; stroke-width: 1.65; stroke-linejoin: miter"/>
   </g>
   <g id="text_1">
    <!-- WORLD -->
    <g style="fill: #f1f5f9" transform="translate(61.777861 124.207664) scale(0.087 -0.087)">
     <defs>
      <path id="DejaVuSans-Bold-3a" d="M 191 4666
L 1344 4666
L 2150 1275
L 2950 4666
L 4109 4666
L 4909 1275
L 5716 4666
L 6859 4666
L 5759 0
L 4372 0
L 3525 3547
L 2688 0
L 1300 0
L 191 4666
z
" transform="scale(0.015625)"/>
      <path id="DejaVuSans-Bold-32" d="M 2719 3878
Q 2169 3878 1866 3472
Q 1563 3066 1563 2328
Q 1563 1594 1866 1187
Q 2169 781 2719 781
Q 3272 781 3575 1187
Q 3878 1594 3878 2328
Q 3878 3066 3575 3472
Q 3272 3878 2719 3878
z
M 2719 4750
Q 3844 4750 4481 4106
Q 5119 3463 5119 2328
Q 5119 1197 4481 553
Q 3844 -91 2719 -91
Q 1597 -91 958 553
Q 319 1197 319 2328
Q 319 3463 958 4106
Q 1597 4750 2719 4750
z
" transform="scale(0.015625)"/>
      <path id="DejaVuSans-Bold-35" d="M 2297 2597
Q 2675 2597 2839 2737
Q 3003 2878 3003 3200
Q 3003 3519 2839 3656
Q 2675 3794 2297 3794
L 1791 3794
L 1791 2597
L 2297 2597
z
M 1791 1766
L 1791 0
L 588 0
L 588 4666
L 2425 4666
Q 3347 4666 3776 4356
Q 4206 4047 4206 3378
Q 4206 2916 3982 2619
Q 3759 2322 3309 2181
Q 3556 2125 3751 1926
Q 3947 1728 4147 1325
L 4800 0
L 3519 0
L 2950 1159
Q 2778 1509 2601 1637
Q 2425 1766 2131 1766
L 1791 1766
z
" transform="scale(0.015625)"/>
      <path id="DejaVuSans-Bold-2f" d="M 588 4666
L 1791 4666
L 1791 909
L 3903 909
L 3903 0
L 588 0
L 588 4666
z
" transform="scale(0.015625)"/>
      <path id="DejaVuSans-Bold-27" d="M 1791 3756
L 1791 909
L 2222 909
Q 2959 909 3348 1275
Q 3738 1641 3738 2338
Q 3738 3031 3350 3393
Q 2963 3756 2222 3756
L 1791 3756
z
M 588 4666
L 1856 4666
Q 2919 4666 3439 4514
Q 3959 4363 4331 4000
Q 4659 3684 4818 3271
Q 4978 2859 4978 2338
Q 4978 1809 4818 1395
Q 4659 981 4331 666
Q 3956 303 3431 151
Q 2906 0 1856 0
L 588 0
L 588 4666
z
" transform="scale(0.015625)"/>
     </defs>
     <use xlink:href="#DejaVuSans-Bold-3a"/>
     <use xlink:href="#DejaVuSans-Bold-32" transform="translate(110.296875 0)"/>
     <use xlink:href="#DejaVuSans-Bold-35" transform="translate(195.3125 0)"/>
     <use xlink:href="#DejaVuSans-Bold-2f" transform="translate(272.3125 0)"/>
     <use xlink:href="#DejaVuSans-Bold-27" transform="translate(336.03125 0)"/>
    </g>
    <!-- SEED -->
    <g style="fill: #f1f5f9" transform="translate(67.319353 134.125664) scale(0.087 -0.087)">
     <defs>
      <path id="DejaVuSans-Bold-36" d="M 3834 4519
L 3834 3531
Q 3450 3703 3084 3790
Q 2719 3878 2394 3878
Q 1963 3878 1756 3759
Q 1550 3641 1550 3391
Q 1550 3203 1689 3098
Q 1828 2994 2194 2919
L 2706 2816
Q 3484 2659 3812 2340
Q 4141 2022 4141 1434
Q 4141 663 3683 286
Q 3225 -91 2284 -91
Q 1841 -91 1394 -6
Q 947 78 500 244
L 500 1259
Q 947 1022 1364 901
Q 1781 781 2169 781
Q 2563 781 2772 912
Q 2981 1044 2981 1288
Q 2981 1506 2839 1625
Q 2697 1744 2272 1838
L 1806 1941
Q 1106 2091 782 2419
Q 459 2747 459 3303
Q 459 4000 909 4375
Q 1359 4750 2203 4750
Q 2588 4750 2994 4692
Q 3400 4634 3834 4519
z
" transform="scale(0.015625)"/>
      <path id="DejaVuSans-Bold-28" d="M 588 4666
L 3834 4666
L 3834 3756
L 1791 3756
L 1791 2888
L 3713 2888
L 3713 1978
L 1791 1978
L 1791 909
L 3903 909
L 3903 0
L 588 0
L 588 4666
z
" transform="scale(0.015625)"/>
     </defs>
     <use xlink:href="#DejaVuSans-Bold-36"/>
     <use xlink:href="#DejaVuSans-Bold-28" transform="translate(72.015625 0)"/>
     <use xlink:href="#DejaVuSans-Bold-28" transform="translate(140.328125 0)"/>
     <use xlink:href="#DejaVuSans-Bold-27" transform="translate(208.640625 0)"/>
    </g>
   </g>
   <g id="text_2">
    <!-- JAVA RANDOM -->
    <g style="fill: #f1f5f9" transform="translate(212.985525 123.398836) scale(0.087 -0.087)">
     <defs>
      <path id="DejaVuSans-Bold-2d" d="M 588 4666
L 1791 4666
L 1791 453
Q 1791 -419 1317 -850
Q 844 -1281 -116 -1281
L -359 -1281
L -359 -372
L -172 -372
Q 203 -372 395 -162
Q 588 47 588 453
L 588 4666
z
" transform="scale(0.015625)"/>
      <path id="DejaVuSans-Bold-24" d="M 3419 850
L 1538 850
L 1241 0
L 31 0
L 1759 4666
L 3194 4666
L 4922 0
L 3713 0
L 3419 850
z
M 1838 1716
L 3116 1716
L 2478 3572
L 1838 1716
z
" transform="scale(0.015625)"/>
      <path id="DejaVuSans-Bold-39" d="M 31 4666
L 1241 4666
L 2478 1222
L 3713 4666
L 4922 4666
L 3194 0
L 1759 0
L 31 4666
z
" transform="scale(0.015625)"/>
      <path id="DejaVuSans-Bold-3" transform="scale(0.015625)"/>
      <path id="DejaVuSans-Bold-31" d="M 588 4666
L 1931 4666
L 3628 1466
L 3628 4666
L 4769 4666
L 4769 0
L 3425 0
L 1728 3200
L 1728 0
L 588 0
L 588 4666
z
" transform="scale(0.015625)"/>
      <path id="DejaVuSans-Bold-30" d="M 588 4666
L 2119 4666
L 3181 2169
L 4250 4666
L 5778 4666
L 5778 0
L 4641 0
L 4641 3413
L 3566 897
L 2803 897
L 1728 3413
L 1728 0
L 588 0
L 588 4666
z
" transform="scale(0.015625)"/>
     </defs>
     <use xlink:href="#DejaVuSans-Bold-2d"/>
     <use xlink:href="#DejaVuSans-Bold-24" transform="translate(37.203125 0)"/>
     <use xlink:href="#DejaVuSans-Bold-39" transform="translate(107.8125 0)"/>
     <use xlink:href="#DejaVuSans-Bold-24" transform="translate(178.421875 0)"/>
     <use xlink:href="#DejaVuSans-Bold-3" transform="translate(255.8125 0)"/>
     <use xlink:href="#DejaVuSans-Bold-35" transform="translate(290.625 0)"/>
     <use xlink:href="#DejaVuSans-Bold-24" transform="translate(367.625 0)"/>
     <use xlink:href="#DejaVuSans-Bold-31" transform="translate(445.015625 0)"/>
     <use xlink:href="#DejaVuSans-Bold-27" transform="translate(528.703125 0)"/>
     <use xlink:href="#DejaVuSans-Bold-32" transform="translate(611.71875 0)"/>
     <use xlink:href="#DejaVuSans-Bold-30" transform="translate(696.734375 0)"/>
    </g>
    <!-- STATE -->
    <g style="fill: #f1f5f9" transform="translate(232.892212 134.125664) scale(0.087 -0.087)">
     <defs>
      <path id="DejaVuSans-Bold-37" d="M 31 4666
L 4331 4666
L 4331 3756
L 2784 3756
L 2784 0
L 1581 0
L 1581 3756
L 31 3756
L 31 4666
z
" transform="scale(0.015625)"/>
     </defs>
     <use xlink:href="#DejaVuSans-Bold-36"/>
     <use xlink:href="#DejaVuSans-Bold-37" transform="translate(72.015625 0)"/>
     <use xlink:href="#DejaVuSans-Bold-24" transform="translate(132.46875 0)"/>
     <use xlink:href="#DejaVuSans-Bold-37" transform="translate(202.09375 0)"/>
     <use xlink:href="#DejaVuSans-Bold-28" transform="translate(270.3125 0)"/>
    </g>
   </g>
   <g id="text_3">
    <!-- NOISE AND -->
    <g style="fill: #f1f5f9" transform="translate(396.425583 73.202864) scale(0.087 -0.087)">
     <defs>
      <path id="DejaVuSans-Bold-2c" d="M 588 4666
L 1791 4666
L 1791 0
L 588 0
L 588 4666
z
" transform="scale(0.015625)"/>
     </defs>
     <use xlink:href="#DejaVuSans-Bold-31"/>
     <use xlink:href="#DejaVuSans-Bold-32" transform="translate(83.6875 0)"/>
     <use xlink:href="#DejaVuSans-Bold-2c" transform="translate(168.703125 0)"/>
     <use xlink:href="#DejaVuSans-Bold-36" transform="translate(205.90625 0)"/>
     <use xlink:href="#DejaVuSans-Bold-28" transform="translate(277.921875 0)"/>
     <use xlink:href="#DejaVuSans-Bold-3" transform="translate(346.234375 0)"/>
     <use xlink:href="#DejaVuSans-Bold-24" transform="translate(381.046875 0)"/>
     <use xlink:href="#DejaVuSans-Bold-31" transform="translate(458.4375 0)"/>
     <use xlink:href="#DejaVuSans-Bold-27" transform="translate(542.125 0)"/>
    </g>
    <!-- CLIMATE FIELDS -->
    <g style="fill: #f1f5f9" transform="translate(384.148387 83.120864) scale(0.087 -0.087)">
     <defs>
      <path id="DejaVuSans-Bold-26" d="M 4288 256
Q 3956 84 3597 -3
Q 3238 -91 2847 -91
Q 1681 -91 1000 561
Q 319 1213 319 2328
Q 319 3447 1000 4098
Q 1681 4750 2847 4750
Q 3238 4750 3597 4662
Q 3956 4575 4288 4403
L 4288 3438
Q 3953 3666 3628 3772
Q 3303 3878 2944 3878
Q 2300 3878 1931 3465
Q 1563 3053 1563 2328
Q 1563 1606 1931 1193
Q 2300 781 2944 781
Q 3303 781 3628 887
Q 3953 994 4288 1222
L 4288 256
z
" transform="scale(0.015625)"/>
      <path id="DejaVuSans-Bold-29" d="M 588 4666
L 3834 4666
L 3834 3756
L 1791 3756
L 1791 2888
L 3713 2888
L 3713 1978
L 1791 1978
L 1791 0
L 588 0
L 588 4666
z
" transform="scale(0.015625)"/>
     </defs>
     <use xlink:href="#DejaVuSans-Bold-26"/>
     <use xlink:href="#DejaVuSans-Bold-2f" transform="translate(73.390625 0)"/>
     <use xlink:href="#DejaVuSans-Bold-2c" transform="translate(137.109375 0)"/>
     <use xlink:href="#DejaVuSans-Bold-30" transform="translate(174.3125 0)"/>
     <use xlink:href="#DejaVuSans-Bold-24" transform="translate(273.828125 0)"/>
     <use xlink:href="#DejaVuSans-Bold-37" transform="translate(343.453125 0)"/>
     <use xlink:href="#DejaVuSans-Bold-28" transform="translate(411.671875 0)"/>
     <use xlink:href="#DejaVuSans-Bold-3" transform="translate(479.984375 0)"/>
     <use xlink:href="#DejaVuSans-Bold-29" transform="translate(514.796875 0)"/>
     <use xlink:href="#DejaVuSans-Bold-2c" transform="translate(583.109375 0)"/>
     <use xlink:href="#DejaVuSans-Bold-28" transform="translate(620.3125 0)"/>
     <use xlink:href="#DejaVuSans-Bold-2f" transform="translate(688.625 0)"/>
     <use xlink:href="#DejaVuSans-Bold-27" transform="translate(752.34375 0)"/>
     <use xlink:href="#DejaVuSans-Bold-36" transform="translate(835.359375 0)"/>
    </g>
   </g>
   <g id="text_4">
    <!-- STRUCTURE -->
    <g style="fill: #f1f5f9" transform="translate(394.623731 175.212464) scale(0.087 -0.087)">
     <defs>
      <path id="DejaVuSans-Bold-38" d="M 588 4666
L 1791 4666
L 1791 1869
Q 1791 1291 1980 1042
Q 2169 794 2597 794
Q 3028 794 3217 1042
Q 3406 1291 3406 1869
L 3406 4666
L 4609 4666
L 4609 1869
Q 4609 878 4112 393
Q 3616 -91 2597 -91
Q 1581 -91 1084 393
Q 588 878 588 1869
L 588 4666
z
" transform="scale(0.015625)"/>
     </defs>
     <use xlink:href="#DejaVuSans-Bold-36"/>
     <use xlink:href="#DejaVuSans-Bold-37" transform="translate(72.015625 0)"/>
     <use xlink:href="#DejaVuSans-Bold-35" transform="translate(140.234375 0)"/>
     <use xlink:href="#DejaVuSans-Bold-38" transform="translate(217.234375 0)"/>
     <use xlink:href="#DejaVuSans-Bold-26" transform="translate(298.4375 0)"/>
     <use xlink:href="#DejaVuSans-Bold-37" transform="translate(371.828125 0)"/>
     <use xlink:href="#DejaVuSans-Bold-38" transform="translate(440.046875 0)"/>
     <use xlink:href="#DejaVuSans-Bold-35" transform="translate(521.25 0)"/>
     <use xlink:href="#DejaVuSans-Bold-28" transform="translate(598.25 0)"/>
    </g>
    <!-- CANDIDATES -->
    <g style="fill: #f1f5f9" transform="translate(392.478637 185.130464) scale(0.087 -0.087)">
     <use xlink:href="#DejaVuSans-Bold-26"/>
     <use xlink:href="#DejaVuSans-Bold-24" transform="translate(73.390625 0)"/>
     <use xlink:href="#DejaVuSans-Bold-31" transform="translate(150.78125 0)"/>
     <use xlink:href="#DejaVuSans-Bold-27" transform="translate(234.46875 0)"/>
     <use xlink:href="#DejaVuSans-Bold-2c" transform="translate(317.484375 0)"/>
     <use xlink:href="#DejaVuSans-Bold-27" transform="translate(354.6875 0)"/>
     <use xlink:href="#DejaVuSans-Bold-24" transform="translate(437.703125 0)"/>
     <use xlink:href="#DejaVuSans-Bold-37" transform="translate(507.328125 0)"/>
     <use xlink:href="#DejaVuSans-Bold-28" transform="translate(575.546875 0)"/>
     <use xlink:href="#DejaVuSans-Bold-36" transform="translate(643.859375 0)"/>
    </g>
   </g>
   <g id="text_5">
    <!-- BIOME AND -->
    <g style="fill: #f1f5f9" transform="translate(571.551023 73.202864) scale(0.087 -0.087)">
     <defs>
      <path id="DejaVuSans-Bold-25" d="M 2456 2859
Q 2741 2859 2887 2984
Q 3034 3109 3034 3353
Q 3034 3594 2887 3720
Q 2741 3847 2456 3847
L 1791 3847
L 1791 2859
L 2456 2859
z
M 2497 819
Q 2859 819 3042 972
Q 3225 1125 3225 1434
Q 3225 1738 3044 1889
Q 2863 2041 2497 2041
L 1791 2041
L 1791 819
L 2497 819
z
M 3616 2497
Q 4003 2384 4215 2081
Q 4428 1778 4428 1338
Q 4428 663 3972 331
Q 3516 0 2584 0
L 588 0
L 588 4666
L 2394 4666
Q 3366 4666 3802 4372
Q 4238 4078 4238 3431
Q 4238 3091 4078 2852
Q 3919 2613 3616 2497
z
" transform="scale(0.015625)"/>
     </defs>
     <use xlink:href="#DejaVuSans-Bold-25"/>
     <use xlink:href="#DejaVuSans-Bold-2c" transform="translate(76.21875 0)"/>
     <use xlink:href="#DejaVuSans-Bold-32" transform="translate(113.421875 0)"/>
     <use xlink:href="#DejaVuSans-Bold-30" transform="translate(198.4375 0)"/>
     <use xlink:href="#DejaVuSans-Bold-28" transform="translate(297.953125 0)"/>
     <use xlink:href="#DejaVuSans-Bold-3" transform="translate(366.265625 0)"/>
     <use xlink:href="#DejaVuSans-Bold-24" transform="translate(401.078125 0)"/>
     <use xlink:href="#DejaVuSans-Bold-31" transform="translate(478.46875 0)"/>
     <use xlink:href="#DejaVuSans-Bold-27" transform="translate(562.15625 0)"/>
    </g>
    <!-- TERRAIN RULES -->
    <g style="fill: #f1f5f9" transform="translate(561.080438 83.120864) scale(0.087 -0.087)">
     <use xlink:href="#DejaVuSans-Bold-37"/>
     <use xlink:href="#DejaVuSans-Bold-28" transform="translate(68.21875 0)"/>
     <use xlink:href="#DejaVuSans-Bold-35" transform="translate(136.53125 0)"/>
     <use xlink:href="#DejaVuSans-Bold-35" transform="translate(213.53125 0)"/>
     <use xlink:href="#DejaVuSans-Bold-24" transform="translate(290.53125 0)"/>
     <use xlink:href="#DejaVuSans-Bold-2c" transform="translate(367.921875 0)"/>
     <use xlink:href="#DejaVuSans-Bold-31" transform="translate(405.125 0)"/>
     <use xlink:href="#DejaVuSans-Bold-3" transform="translate(488.8125 0)"/>
     <use xlink:href="#DejaVuSans-Bold-35" transform="translate(523.625 0)"/>
     <use xlink:href="#DejaVuSans-Bold-38" transform="translate(600.625 0)"/>
     <use xlink:href="#DejaVuSans-Bold-2f" transform="translate(681.828125 0)"/>
     <use xlink:href="#DejaVuSans-Bold-28" transform="translate(745.546875 0)"/>
     <use xlink:href="#DejaVuSans-Bold-36" transform="translate(813.859375 0)"/>
    </g>
   </g>
   <g id="text_6">
    <!-- BIOME AND -->
    <g style="fill: #f1f5f9" transform="translate(571.551023 175.212464) scale(0.087 -0.087)">
     <use xlink:href="#DejaVuSans-Bold-25"/>
     <use xlink:href="#DejaVuSans-Bold-2c" transform="translate(76.21875 0)"/>
     <use xlink:href="#DejaVuSans-Bold-32" transform="translate(113.421875 0)"/>
     <use xlink:href="#DejaVuSans-Bold-30" transform="translate(198.4375 0)"/>
     <use xlink:href="#DejaVuSans-Bold-28" transform="translate(297.953125 0)"/>
     <use xlink:href="#DejaVuSans-Bold-3" transform="translate(366.265625 0)"/>
     <use xlink:href="#DejaVuSans-Bold-24" transform="translate(401.078125 0)"/>
     <use xlink:href="#DejaVuSans-Bold-31" transform="translate(478.46875 0)"/>
     <use xlink:href="#DejaVuSans-Bold-27" transform="translate(562.15625 0)"/>
    </g>
    <!-- HEIGHT GATES -->
    <g style="fill: #f1f5f9" transform="translate(564.022125 185.130464) scale(0.087 -0.087)">
     <defs>
      <path id="DejaVuSans-Bold-2b" d="M 588 4666
L 1791 4666
L 1791 2888
L 3566 2888
L 3566 4666
L 4769 4666
L 4769 0
L 3566 0
L 3566 1978
L 1791 1978
L 1791 0
L 588 0
L 588 4666
z
" transform="scale(0.015625)"/>
      <path id="DejaVuSans-Bold-2a" d="M 4781 347
Q 4331 128 3847 18
Q 3363 -91 2847 -91
Q 1681 -91 1000 561
Q 319 1213 319 2328
Q 319 3456 1012 4103
Q 1706 4750 2913 4750
Q 3378 4750 3804 4662
Q 4231 4575 4609 4403
L 4609 3438
Q 4219 3659 3833 3768
Q 3447 3878 3059 3878
Q 2341 3878 1952 3476
Q 1563 3075 1563 2328
Q 1563 1588 1938 1184
Q 2313 781 3003 781
Q 3191 781 3352 804
Q 3513 828 3641 878
L 3641 1784
L 2906 1784
L 2906 2591
L 4781 2591
L 4781 347
z
" transform="scale(0.015625)"/>
     </defs>
     <use xlink:href="#DejaVuSans-Bold-2b"/>
     <use xlink:href="#DejaVuSans-Bold-28" transform="translate(83.6875 0)"/>
     <use xlink:href="#DejaVuSans-Bold-2c" transform="translate(152 0)"/>
     <use xlink:href="#DejaVuSans-Bold-2a" transform="translate(189.203125 0)"/>
     <use xlink:href="#DejaVuSans-Bold-2b" transform="translate(271.28125 0)"/>
     <use xlink:href="#DejaVuSans-Bold-37" transform="translate(354.96875 0)"/>
     <use xlink:href="#DejaVuSans-Bold-3" transform="translate(423.1875 0)"/>
     <use xlink:href="#DejaVuSans-Bold-2a" transform="translate(458 0)"/>
     <use xlink:href="#DejaVuSans-Bold-24" transform="translate(540.078125 0)"/>
     <use xlink:href="#DejaVuSans-Bold-37" transform="translate(609.703125 0)"/>
     <use xlink:href="#DejaVuSans-Bold-28" transform="translate(677.921875 0)"/>
     <use xlink:href="#DejaVuSans-Bold-36" transform="translate(746.234375 0)"/>
    </g>
   </g>
   <g id="text_7">
    <!-- WORLD -->
    <g style="fill: #f1f5f9" transform="translate(757.384261 124.207664) scale(0.087 -0.087)">
     <use xlink:href="#DejaVuSans-Bold-3a"/>
     <use xlink:href="#DejaVuSans-Bold-32" transform="translate(110.296875 0)"/>
     <use xlink:href="#DejaVuSans-Bold-35" transform="translate(195.3125 0)"/>
     <use xlink:href="#DejaVuSans-Bold-2f" transform="translate(272.3125 0)"/>
     <use xlink:href="#DejaVuSans-Bold-27" transform="translate(336.03125 0)"/>
    </g>
    <!-- VISUALIZATION -->
    <g style="fill: #f1f5f9" transform="translate(738.232706 134.125664) scale(0.087 -0.087)">
     <defs>
      <path id="DejaVuSans-Bold-3d" d="M 359 4666
L 4281 4666
L 4281 3938
L 1778 909
L 4353 909
L 4353 0
L 288 0
L 288 728
L 2791 3756
L 359 3756
L 359 4666
z
" transform="scale(0.015625)"/>
     </defs>
     <use xlink:href="#DejaVuSans-Bold-39"/>
     <use xlink:href="#DejaVuSans-Bold-2c" transform="translate(77.390625 0)"/>
     <use xlink:href="#DejaVuSans-Bold-36" transform="translate(114.59375 0)"/>
     <use xlink:href="#DejaVuSans-Bold-38" transform="translate(186.609375 0)"/>
     <use xlink:href="#DejaVuSans-Bold-24" transform="translate(264.734375 0)"/>
     <use xlink:href="#DejaVuSans-Bold-2f" transform="translate(342.125 0)"/>
     <use xlink:href="#DejaVuSans-Bold-2c" transform="translate(405.84375 0)"/>
     <use xlink:href="#DejaVuSans-Bold-3d" transform="translate(443.046875 0)"/>
     <use xlink:href="#DejaVuSans-Bold-24" transform="translate(515.5625 0)"/>
     <use xlink:href="#DejaVuSans-Bold-37" transform="translate(585.1875 0)"/>
     <use xlink:href="#DejaVuSans-Bold-2c" transform="translate(653.40625 0)"/>
     <use xlink:href="#DejaVuSans-Bold-32" transform="translate(690.609375 0)"/>
     <use xlink:href="#DejaVuSans-Bold-31" transform="translate(775.625 0)"/>
    </g>
   </g>
  </g>
 </g>
 <defs>
  <clipPath id="p1c907d99c4">
   <rect x="12.96" y="10.08" width="838.08" height="231.84"/>
  </clipPath>
 </defs>
</svg>
